<svg xmlns="http://www.w3.org/2000/svg" version="1.1" width="3000" height="3000">
<path d="M0 0 C990 0 1980 0 3000 0 C3000 990 3000 1980 3000 3000 C2010 3000 1020 3000 0 3000 C0 2010 0 1020 0 0 Z " transform="translate(0,0)" data-index="0" style="opacity: 1; visibility: visible; fill: rgb(0, 0, 0);"/>
<path d="M0 0 C67.2375 -0.061875 134.475 -0.12375 203.75 -0.1875 C224.95217773 -0.21481201 246.15435547 -0.24212402 267.99902344 -0.27026367 C293.96142578 -0.28381348 293.96142578 -0.28381348 306.12945557 -0.28633118 C314.59741745 -0.28911732 323.06531926 -0.30007301 331.53326416 -0.31672668 C341.32052984 -0.33594626 351.10773835 -0.34447923 360.895023 -0.34033485 C365.89185762 -0.3385428 370.88856479 -0.3412001 375.8853755 -0.35764539 C397.14507034 -0.42424659 417.90805445 0.02388868 439 3 C439.78576054 3.10959632 440.57152108 3.21919263 441.38109255 3.33211005 C445.29337623 3.88661202 449.17864863 4.52266113 453.0625 5.25 C454.20130615 5.45979492 455.3401123 5.66958984 456.51342773 5.88574219 C474.18416142 9.25530082 491.42383001 13.99138173 508.5 19.625 C509.59127197 19.9849707 510.68254395 20.34494141 511.80688477 20.71582031 C518.75459287 23.07410344 525.36181117 25.88616453 532 29 C533.48069042 29.65773362 534.96363544 30.31042482 536.44921875 30.95703125 C546.46318761 35.33407474 556.31353228 39.9374675 566 45 C567.01900391 45.52835449 567.01900391 45.52835449 568.05859375 46.06738281 C593.31830417 59.27346047 616.61544662 76.20815593 638 95 C638.90105469 95.78890625 639.80210937 96.5778125 640.73046875 97.390625 C647.59145 103.54518646 654.1434442 110.01184705 660.6875 116.5 C662.00621094 117.7991333 662.00621094 117.7991333 663.3515625 119.12451172 C669.33755876 125.10263166 674.72345649 131.39350939 680 138 C680.86360681 139.02736636 681.73200327 140.0507699 682.609375 141.06640625 C722.93590168 188.0894912 749.03055303 246.78550027 762 307 C762.16193848 307.74604492 762.32387695 308.49208984 762.49072266 309.26074219 C766.72250329 329.14203707 769.14611168 349.74115843 769.16796875 370.0625 C769.17129715 371.17447754 769.17462555 372.28645508 769.17805481 373.43212891 C769.18308309 375.77164298 769.18546442 378.11116412 769.18530273 380.45068359 C769.18747731 383.96334169 769.20564497 387.47567896 769.22460938 390.98828125 C769.25865798 404.45619775 768.71082134 417.63975372 767 431 C766.85925049 432.15467773 766.71850098 433.30935547 766.57348633 434.49902344 C763.31453996 459.79436895 757.41137403 484.43179292 748.89160156 508.45703125 C748.07153413 510.79597496 747.28709036 513.14212887 746.5234375 515.5 C746.30445801 516.17554932 746.08547852 516.85109863 745.85986328 517.54711914 C745.30750844 519.25924226 744.75530776 520.97141512 744.203125 522.68359375 C736.21134208 544.71289148 724.7361899 567.36253416 712 587 C711.39647705 587.93948486 711.39647705 587.93948486 710.78076172 588.89794922 C707.92815694 593.31743079 704.98890835 597.67180584 702 602 C701.60345215 602.57814453 701.2069043 603.15628906 700.79833984 603.75195312 C694.50107621 612.89754926 687.68517338 621.56158954 680.58203125 630.09326172 C679.14584104 631.82422554 677.72755881 633.56817501 676.3125 635.31640625 C669.75291173 643.30330118 662.54990392 650.63370072 655.25 657.9375 C654.75413391 658.4343631 654.25826782 658.9312262 653.74737549 659.44314575 C648.01177566 665.17744058 642.19916127 670.76577969 636 676 C635.3611084 676.54567627 634.7222168 677.09135254 634.06396484 677.65356445 C624.40709562 685.85842615 614.47446793 693.49521952 604.00390625 700.63134766 C602.12876087 701.91205733 600.26665927 703.20974164 598.40625 704.51171875 C582.76930757 715.33595779 565.96581411 724.22048694 548.875 732.5 C547.69083496 733.07524414 546.50666992 733.65048828 545.28662109 734.24316406 C537.65624194 737.88768396 529.9361672 741.0845911 522 744 C521.03618408 744.35553955 520.07236816 744.7110791 519.0793457 745.07739258 C517.32898475 745.71902746 515.57573621 746.35281725 513.8203125 746.98046875 C511.91157227 747.67047041 510.01053869 748.38210904 508.1171875 749.11328125 C486.53748902 757.25206188 463.74444191 762.09685093 441 765.625 C439.93579834 765.79177246 439.93579834 765.79177246 438.85009766 765.96191406 C436.23761036 766.34601906 433.61983905 766.6692973 431 767 C429.83902676 767.16465193 428.67805351 767.32930386 427.48189926 767.49894524 C409.73465028 769.78332287 391.80503264 769.27098142 373.94955379 769.23214546 C368.84920145 769.22333285 363.7488526 769.22633985 358.64849472 769.2277813 C348.77412862 769.22883921 338.89979927 769.21965751 329.02544259 769.20677864 C317.58971211 769.19231323 306.15400334 769.19078557 294.71826172 769.18920898 C264.5621687 769.17873124 234.40608379 769.15080879 204.25 769.125 C136.8475 769.08375 69.445 769.0425 0 769 C0 515.23 0 261.46 0 0 Z " fill="#C0FE00" transform="translate(656,1577)" data-index="1" style="opacity: 1;"/>
<path d="M0 0 C1.08480148 -0.00687836 2.16960297 -0.01375671 3.28727722 -0.02084351 C6.76446946 -0.03790464 10.24151814 -0.04429592 13.71875 -0.046875 C14.90183746 -0.04854675 16.08492493 -0.05021851 17.30386353 -0.05194092 C37.45815944 -0.05365049 57.12888462 0.62936044 76.92504883 4.72998047 C80.1796112 5.40133139 83.44926379 5.98430806 86.71875 6.578125 C101.45708081 9.33264025 115.69071077 12.77109633 129.93896484 17.46386719 C132.13588733 18.17625542 134.33962182 18.85670034 136.55078125 19.5234375 C137.59081299 19.83873413 137.59081299 19.83873413 138.65185547 20.16040039 C140.50543876 20.72008772 142.36009525 21.27621749 144.21484375 21.83203125 C186.53320334 35.61190216 228.06309919 60.51243586 261.44970703 89.70507812 C262.80543475 90.85312467 264.18637427 91.97145593 265.57763672 93.07617188 C272.72685279 98.76861053 279.23026805 104.90512846 285.66259766 111.38623047 C287.34189428 113.07625742 289.03163969 114.75530264 290.72265625 116.43359375 C297.34706582 123.04995106 303.3912837 129.86764076 309.21875 137.203125 C310.15340469 138.30505906 311.09477742 139.40138279 312.046875 140.48828125 C354.95523363 189.69447961 388.01066802 258.58252694 394.796875 323.859375 C395.138817 326.56958194 395.60780653 329.13668407 396.17578125 331.80273438 C397.19169558 336.83805629 397.85251241 341.84069145 398.328125 346.953125 C398.41221619 347.85434082 398.49630737 348.75555664 398.58294678 349.68408203 C399.45901749 359.85485635 399.52896601 370.00121899 399.46875 380.203125 C399.46498352 381.1810199 399.46121704 382.15891479 399.45733643 383.16644287 C399.28870961 420.73207245 395.28235362 457.38498038 384.36694336 493.4519043 C383.77911692 495.39768576 383.20073491 497.34610946 382.62304688 499.29492188 C380.74504741 505.54110347 378.77022557 511.66180813 376.25927734 517.68261719 C375.04822503 520.61619393 373.93492152 523.58073241 372.81640625 526.55078125 C352.81022084 578.66754255 320.46734784 623.83724006 281.34375 663.203125 C280.84504395 663.70650391 280.34633789 664.20988281 279.83251953 664.72851562 C243.92531588 700.48181435 198.30491476 727.23807359 151.21875 745.203125 C150.57478271 745.45094727 149.93081543 745.69876953 149.26733398 745.95410156 C136.01862241 750.99897861 122.48085087 755.49276125 108.78125 759.140625 C108.04414795 759.33962402 107.3070459 759.53862305 106.54760742 759.74365234 C101.3567597 761.07767946 96.65525319 761.59906909 91.21875 762.203125 C91.21875 709.403125 91.21875 656.603125 91.21875 602.203125 C99.13875 598.903125 107.05875 595.603125 115.21875 592.203125 C137.87475153 581.03467354 157.96947823 566.61247213 176.21875 549.203125 C177.07082031 548.40390625 177.92289063 547.6046875 178.80078125 546.78125 C185.68985069 540.14170591 191.47927915 532.82762902 197.21875 525.203125 C197.94191406 524.25179687 198.66507813 523.30046875 199.41015625 522.3203125 C213.19446288 503.81535292 223.74644064 483.26310394 231.39599609 461.53515625 C232.12520743 459.46826405 232.87976475 457.41328817 233.64453125 455.359375 C236.28901172 447.95810457 238.19577574 440.49281371 239.90625 432.828125 C240.10887451 431.93174316 240.31149902 431.03536133 240.52026367 430.11181641 C243.65081948 415.42941826 244.53111975 400.96648167 244.42456055 385.99560547 C244.4059343 383.28213386 244.40405421 380.56899857 244.40429688 377.85546875 C244.39939281 376.1197887 244.39356941 374.38411095 244.38671875 372.6484375 C244.38504951 371.43923141 244.38504951 371.43923141 244.38334656 370.20559692 C244.35550297 366.95099612 244.25510327 364.3121848 243.21875 361.203125 C243.06086755 359.39943757 242.93630598 357.59273529 242.83203125 355.78515625 C242.32902565 349.28905869 241.00681895 343.19452534 239.40625 336.890625 C239.13635254 335.80265625 238.86645508 334.7146875 238.58837891 333.59375 C237.80756409 330.4611787 237.01364544 327.33214619 236.21875 324.203125 C235.83661567 322.65770623 235.45502474 321.11215288 235.07421875 319.56640625 C233.56264114 313.61042914 231.93765648 308.00517289 229.26171875 302.46875 C228.03582834 299.80576709 227.08193811 297.08811705 226.09375 294.328125 C217.98909602 273.22174516 205.18084276 253.10316501 190.21875 236.203125 C189.55230469 235.42839844 188.88585938 234.65367187 188.19921875 233.85546875 C185.92053367 231.25548485 183.58628697 228.72260837 181.21875 226.203125 C180.69571289 225.64608887 180.17267578 225.08905273 179.63378906 224.51513672 C170.25878771 214.61575284 160.29953035 206.13207452 149.21875 198.203125 C148.62191406 197.76693848 148.02507813 197.33075195 147.41015625 196.88134766 C123.42878856 179.44591451 95.74205166 168.56252948 67.21875 161.203125 C66.44966309 161.00203125 65.68057617 160.8009375 64.88818359 160.59375 C29.96583326 151.62648416 -7.09465834 153.20721228 -41.78125 162.203125 C-42.84585449 162.47898437 -43.91045898 162.75484375 -45.00732422 163.0390625 C-83.81346402 173.31913587 -116.75416106 192.67028086 -145.78125 220.203125 C-146.28446777 220.67766113 -146.78768555 221.15219727 -147.30615234 221.64111328 C-154.76287893 228.71888754 -161.32985978 236.22259681 -167.47851562 244.46044922 C-168.7164235 246.1164062 -169.97425348 247.75546014 -171.234375 249.39453125 C-183.78621963 266.026548 -193.31449624 284.80834951 -200.78125 304.203125 C-201.06548828 304.93208984 -201.34972656 305.66105469 -201.64257812 306.41210938 C-205.36440728 316.14267475 -207.80878204 326.09656168 -210.03125 336.265625 C-210.27770264 337.388479 -210.52415527 338.51133301 -210.77807617 339.66821289 C-213.87114364 354.48136526 -215.21957836 369.21283195 -215.21875 384.328125 C-215.22048218 385.09371735 -215.22221436 385.85930969 -215.22399902 386.64810181 C-215.20807969 402.89315111 -213.00413569 418.29503984 -209.78125 434.203125 C-209.47855227 435.82280196 -209.17638093 437.4425775 -208.875 439.0625 C-202.34294481 471.95974926 -185.00707798 504.47773947 -163.78125 530.203125 C-163.31750977 530.76837891 -162.85376953 531.33363281 -162.37597656 531.91601562 C-152.23092609 544.20935 -141.44066935 555.46511011 -128.78125 565.203125 C-128.24725586 565.61884766 -127.71326172 566.03457031 -127.16308594 566.46289062 C-107.27630685 581.86573157 -85.40218474 593.61369419 -61.78125 602.203125 C-61.78125 655.003125 -61.78125 707.803125 -61.78125 762.203125 C-70.32973347 760.8879737 -78.24007662 759.50641919 -86.46875 757.140625 C-87.53399902 756.83680908 -88.59924805 756.53299316 -89.69677734 756.2199707 C-146.72122685 739.65143641 -199.40858006 711.24985677 -243.015625 670.75 C-245.21506701 668.72452515 -247.44001171 666.76218019 -249.71875 664.828125 C-258.37517198 657.31261219 -266.38845556 648.95282475 -273.78125 640.203125 C-274.66792391 639.19022559 -275.55608301 638.17862534 -276.4453125 637.16796875 C-303.48649201 606.29049733 -325.84210091 570.22976266 -341.03076172 532.08740234 C-341.64533756 530.54436515 -342.2755517 529.00756482 -342.91015625 527.47265625 C-343.90205923 525.06137746 -344.84916731 522.63823401 -345.78125 520.203125 C-346.0376123 519.53345703 -346.29397461 518.86378906 -346.55810547 518.17382812 C-350.44591054 507.96535837 -354.03511996 497.78739949 -356.78125 487.203125 C-356.97960449 486.44386719 -357.17795898 485.68460938 -357.38232422 484.90234375 C-365.69298026 452.94312144 -370.16461766 421.1139779 -370.04199219 388.07348633 C-370.03124995 384.64060867 -370.04197048 381.20825281 -370.0546875 377.77539062 C-370.06394866 364.46478036 -369.50048591 351.40496917 -367.78125 338.203125 C-367.69445984 337.52812958 -367.60766968 336.85313416 -367.51824951 336.15768433 C-361.68981503 291.78421119 -348.45328904 248.81499385 -327.77001953 209.11132812 C-326.75629729 207.15496936 -325.76616414 205.1877965 -324.77734375 203.21875 C-312.83152597 179.71841404 -297.62119282 157.80463715 -280.28051758 137.97363281 C-279.1283726 136.61304735 -278.00607198 135.22714603 -276.8972168 133.83105469 C-271.29009682 126.79023473 -265.25609436 120.39855945 -258.8605957 114.07666016 C-257.2117543 112.44620732 -255.57118899 110.8077612 -253.93164062 109.16796875 C-248.38684094 103.64124221 -242.77773949 98.24270235 -236.78125 93.203125 C-236.14920654 92.66429687 -235.51716309 92.12546875 -234.8659668 91.5703125 C-213.7760319 73.67486305 -191.17516041 58.44534995 -166.83789062 45.32177734 C-164.95739889 44.29893628 -163.09412806 43.25133913 -161.234375 42.19140625 C-126.05276798 22.57089464 -85.36441436 10.11750588 -45.59863281 4.60449219 C-42.86899923 4.21562584 -40.14988104 3.78576512 -37.4296875 3.3359375 C-36.58817139 3.19712158 -35.74665527 3.05830566 -34.87963867 2.9152832 C-33.35864675 2.6631451 -31.83793462 2.4093078 -30.31762695 2.15307617 C-20.26357435 0.53130304 -10.17185663 0.04417976 0 0 Z " fill="#C0FE00" transform="translate(1947.78125,1576.796875)" data-index="2" style="opacity: 1;"/>
<path d="M0 0 C10.82436437 1.91018195 20.90825005 3.80847306 31.3125 7 C31.94485565 7.1925235 32.5772113 7.385047 33.22872925 7.58340454 C57.82280406 15.10556605 81.11999317 25.34844096 104 37 C105.30203369 37.66249756 105.30203369 37.66249756 106.63037109 38.33837891 C131.70178923 51.27258444 154.8662216 68.37879636 176 87 C176.71873291 87.63115723 177.43746582 88.26231445 178.17797852 88.91259766 C184.49313698 94.52145136 190.54403791 100.35779073 196.51391602 106.32861328 C198.05923066 107.8717353 199.61240446 109.40664306 201.16601562 110.94140625 C207.56277571 117.30266758 213.3849913 123.92670855 219 131 C219.86324737 132.02766839 220.73163688 133.05108652 221.609375 134.06640625 C266.37054109 186.2605397 295.25974648 254.67131137 303.69580078 322.6796875 C304.08878642 325.67722801 304.59413721 328.64906842 305.125 331.625 C306.79681152 341.28326595 307.16042616 350.99642583 307.203125 360.78125 C307.21018463 361.86505447 307.21724426 362.94885895 307.22451782 364.06550598 C307.45195867 409.23594556 307.45195867 409.23594556 304 430 C303.69400879 431.888396 303.69400879 431.888396 303.38183594 433.81494141 C298.8256009 461.53754005 292.72989122 490.05660246 281.0144043 515.71777344 C279.99022201 518.0219987 279.06722913 520.34815042 278.15625 522.69921875 C275.57500103 529.21134834 272.54938353 535.50928599 269.5 541.8125 C269.19287079 542.44761505 268.88574158 543.0827301 268.56930542 543.73709106 C256.57580613 568.45456588 242.22784892 591.56222613 225 613 C224.26652344 613.92554688 223.53304687 614.85109375 222.77734375 615.8046875 C217.93140692 621.83860531 212.81318717 627.56304947 207.55078125 633.23046875 C205.5044649 635.45227318 203.51935577 637.70033738 201.5625 640 C194.36244884 648.29044352 186.37001692 655.90751198 178 663 C176.98590881 663.8881022 175.9729921 664.7775464 174.9609375 665.66796875 C142.7838751 693.8432327 105.49261192 716.03695924 65.82324219 731.85888672 C62.87817103 733.04924149 59.95787381 734.29103289 57.03515625 735.53515625 C51.15278151 737.99022246 45.19753998 740.06855777 39.125 742 C38.05145264 742.34248779 36.97790527 742.68497559 35.87182617 743.0378418 C26.1351513 746.07630279 16.31209801 748.43103449 6.33154297 750.50927734 C4.29054537 750.93884857 2.25594527 751.39858955 0.22265625 751.86328125 C-6.35566177 753.36009807 -12.95991546 754.53520903 -19.625 755.5625 C-20.35734863 755.6773877 -21.08969727 755.79227539 -21.84423828 755.91064453 C-24.55892439 756.31233351 -27.27664009 756.66155738 -30 757 C-30.65238647 757.08364807 -31.30477295 757.16729614 -31.97692871 757.253479 C-45.81750029 758.9842291 -59.54283367 759.31123033 -73.48144531 759.26074219 C-76.99561813 759.25001338 -80.50927996 759.26070859 -84.0234375 759.2734375 C-102.86311534 759.28650745 -121.11662273 757.70471957 -139.6875 754.625 C-140.35210236 754.51573181 -141.01670471 754.40646362 -141.70144653 754.29388428 C-204.76725676 743.89005384 -265.06947869 716.87739621 -315 677 C-315.92941406 676.26394531 -316.85882812 675.52789063 -317.81640625 674.76953125 C-323.84489326 669.92444567 -329.56649661 664.80998638 -335.23046875 659.55078125 C-337.45227318 657.5044649 -339.70033738 655.51935577 -342 653.5625 C-350.29128846 646.36171503 -357.90361292 638.3678231 -365 630 C-365.845625 629.04351563 -366.69125 628.08703125 -367.5625 627.1015625 C-393.73192719 597.37958319 -413.34020973 563.76213832 -430 528 C-430.43908691 527.08081787 -430.87817383 526.16163574 -431.33056641 525.21459961 C-434.60754143 518.24455582 -437.12415449 511.13372809 -439.5 503.8125 C-440.08527466 502.02912231 -440.08527466 502.02912231 -440.68237305 500.2097168 C-441.7953416 496.80873504 -442.89889867 493.4048389 -444 490 C-444.41113037 488.74123047 -444.41113037 488.74123047 -444.83056641 487.45703125 C-445.0682373 486.72871094 -445.3059082 486.00039062 -445.55078125 485.25 C-445.74583252 484.65316406 -445.94088379 484.05632812 -446.1418457 483.44140625 C-450.32870565 470.15075511 -453.4387023 456.72263452 -455.75537109 442.99291992 C-456.12226102 440.8286571 -456.50388059 438.66735088 -456.88671875 436.50585938 C-460.2152073 417.33414297 -461.33304968 398.37322691 -461.26074219 378.92529297 C-461.25001066 375.50340061 -461.26071495 372.08203298 -461.2734375 368.66015625 C-461.28491314 350.93722062 -460.41951822 333.5095463 -456.78125 316.12890625 C-456.05305904 312.54804717 -455.57564738 308.94927474 -455.08984375 305.328125 C-450.58209837 273.26195324 -438.85104307 241.11748494 -425 212 C-424.56220215 211.06687988 -424.1244043 210.13375977 -423.67333984 209.17236328 C-411.43049832 183.22153099 -395.776656 159.46403296 -378 137 C-377.27425781 136.07960938 -376.54851562 135.15921875 -375.80078125 134.2109375 C-371.22864905 128.51424137 -366.41863102 123.09110083 -361.42431641 117.765625 C-358.76129007 114.92554781 -356.17112868 112.04575699 -353.63671875 109.08984375 C-349.97031577 104.88110612 -346.0218184 101.04968377 -341.9375 97.25 C-341.19218018 96.55463135 -340.44686035 95.8592627 -339.67895508 95.14282227 C-322.41376401 79.12283222 -303.95038643 64.55844964 -284 52 C-283.27973633 51.54592773 -282.55947266 51.09185547 -281.81738281 50.62402344 C-247.28074257 29.02584546 -210.24726009 13.51043291 -171 2.8125 C-170.29641357 2.61615967 -169.59282715 2.41981934 -168.86791992 2.2175293 C-163.5804776 0.86312015 -159.78447816 1 -154 1 C-154 53.14 -154 105.28 -154 159 C-163 163 -163 163 -167.18359375 164.7890625 C-222.19296511 188.38743444 -266.56375198 232.63157828 -289.6484375 288.05053711 C-290.82785519 291.01215955 -291.92345397 293.99962635 -293 297 C-293.43828125 298.19496094 -293.8765625 299.38992188 -294.328125 300.62109375 C-297.47025289 309.56480116 -299.63702779 318.57349865 -301.54492188 327.84692383 C-302.01341101 330.06345047 -302.52809367 332.2664931 -303.04296875 334.47265625 C-308.82192458 360.51014053 -307.38412639 389.8842126 -303 416 C-302.79117187 417.30517578 -302.79117187 417.30517578 -302.578125 418.63671875 C-300.45390681 431.63772085 -296.72045307 443.72068491 -292 456 C-291.73348633 456.71188477 -291.46697266 457.42376953 -291.19238281 458.15722656 C-283.97470774 477.34700508 -274.29067772 495.58864514 -262 512 C-261.56365234 512.59039063 -261.12730469 513.18078125 -260.67773438 513.7890625 C-224.60166205 562.31806053 -169.6608559 593.91954269 -110 603 C-108.79988281 603.18691406 -107.59976562 603.37382813 -106.36328125 603.56640625 C-78.12811768 607.53234451 -48.4124463 605.8642264 -21 598 C-20.10539062 597.77699219 -19.21078125 597.55398438 -18.2890625 597.32421875 C24.63219485 586.56088806 68.96051491 560.8813638 97 526 C97.82886719 524.98550781 98.65773438 523.97101562 99.51171875 522.92578125 C118.79393578 499.05776335 135.7935372 470.36195264 143.4375 440.4375 C143.64213867 439.64375977 143.84677734 438.85001953 144.05761719 438.03222656 C145.79025846 431.14121947 147.31026704 424.20756877 148.75 417.25 C148.96068115 416.25798584 149.1713623 415.26597168 149.38842773 414.24389648 C157.89335314 371.74017466 151.29316718 324.38407972 134 285 C133.50161621 283.8550708 133.50161621 283.8550708 132.99316406 282.68701172 C117.69641626 247.96638797 93.52515185 216.63452764 63 194 C62.43700195 193.5762207 61.87400391 193.15244141 61.29394531 192.71582031 C48.69089767 183.2544441 35.32957229 175.43772019 21.125 168.625 C20.28187256 168.22023438 19.43874512 167.81546875 18.57006836 167.3984375 C12.44699975 164.52796877 6.41204962 162.33165441 0 160 C0 107.2 0 54.4 0 0 Z " fill="#C0FE00" transform="translate(2039,665)" data-index="3" style="opacity: 1;"/>
<path d="M0 0 C1.08398575 -0.00701431 2.1679715 -0.01402863 3.2848053 -0.02125549 C6.76282966 -0.03865689 10.2406837 -0.04510767 13.71875 -0.046875 C14.90781952 -0.04754974 16.09688904 -0.04822449 17.32199097 -0.04891968 C34.80970305 -0.03314147 51.92510169 0.37416862 69.21875 3.203125 C70.45447754 3.40131836 71.69020508 3.59951172 72.96337891 3.80371094 C94.6555489 7.34408001 94.6555489 7.34408001 100.18286133 9.1965332 C103.28556977 10.22528004 106.31113074 10.87499313 109.51953125 11.4921875 C117.25385709 13.11159055 124.69384242 15.39202996 132.19702148 17.85449219 C134.41140138 18.57981233 136.63010387 19.29054001 138.84960938 20 C146.90215452 22.60159496 154.58009144 25.53345901 162.21875 29.203125 C163.69881125 29.86227318 165.18177436 30.51495559 166.66796875 31.16015625 C176.68193761 35.53719974 186.53228228 40.1405925 196.21875 45.203125 C197.23775391 45.73147949 197.23775391 45.73147949 198.27734375 46.27050781 C223.53705417 59.47658547 246.83419662 76.41128093 268.21875 95.203125 C269.11980469 95.99203125 270.02085937 96.7809375 270.94921875 97.59375 C277.8102 103.74831146 284.3621942 110.21497205 290.90625 116.703125 C292.22496094 118.0022583 292.22496094 118.0022583 293.5703125 119.32763672 C298.8098552 124.56028528 303.62728662 129.97641707 308.25561523 135.75634766 C309.80344818 137.68550844 311.37310328 139.56670378 313.01171875 141.41796875 C356.99188724 191.42478349 383.87964058 257.40225167 394.96875 322.453125 C395.16750732 323.61094482 395.36626465 324.76876465 395.57104492 325.96166992 C396.17846896 329.70176693 396.71004642 333.44867315 397.21875 337.203125 C397.39523512 338.50294658 397.57172024 339.80276815 397.75355339 341.14197826 C399.91847674 359.14798434 399.49035297 377.28553705 399.45088124 395.38767183 C399.44215648 400.41597926 399.44517321 405.44428234 399.44668579 410.47259521 C399.44772899 419.16140294 399.44151184 427.85018038 399.43021011 436.53898048 C399.41388092 449.10116215 399.40873956 461.66332933 399.40623413 474.22552045 C399.40186861 494.61218793 399.38859067 514.9988393 399.36962891 535.38549805 C399.35124042 555.17651286 399.33709848 574.96752328 399.32861328 594.75854492 C399.32782511 596.59175191 399.32782511 596.59175191 399.32702102 598.46199337 C399.32441074 604.59376331 399.32188337 610.72553328 399.31939721 616.85730326 C399.29870033 667.63925815 399.26184988 718.42118322 399.21875 769.203125 C348.39875 769.203125 297.57875 769.203125 245.21875 769.203125 C245.19893066 757.41843506 245.17911133 745.63374512 245.15869141 733.49194336 C245.09378899 695.72127578 245.01925017 657.95063267 244.93869839 620.17999535 C244.92618055 614.30627636 244.91374762 608.43255718 244.90136719 602.55883789 C244.89890119 601.38955943 244.8964352 600.22028096 244.89389448 599.01556981 C244.85424558 580.1197589 244.82146354 561.22394206 244.79125018 542.32811397 C244.76006011 522.9177622 244.72141881 503.50743541 244.67595994 484.09711176 C244.64817498 472.13430811 244.62609898 460.17152259 244.61148749 448.20869548 C244.600889 439.9887526 244.58300786 431.76884496 244.55958296 423.54892873 C244.54630761 418.81707195 244.53606709 414.08526422 244.53453636 409.35338783 C244.59561992 374.5326346 244.59561992 374.5326346 239.96875 340.078125 C239.64777344 338.4701001 239.64777344 338.4701001 239.3203125 336.82958984 C236.30934647 322.21818499 232.54671732 307.75375939 226.21875 294.203125 C225.51418616 292.62896745 224.80977337 291.05474229 224.10546875 289.48046875 C216.38381186 272.49598497 206.89742862 256.77095409 195.21875 242.203125 C194.43757813 241.21828125 193.65640625 240.2334375 192.8515625 239.21875 C181.04652789 224.64791209 167.54806012 211.04728208 152.21875 200.203125 C151.53876953 199.72182129 150.85878906 199.24051758 150.15820312 198.74462891 C99.21865872 163.08008265 38.33818968 148.00060153 -23.26171875 158.23828125 C-41.19904764 161.4229457 -59.20794249 165.46360925 -75.78125 173.203125 C-77.35540755 173.90768884 -78.92963271 174.61210163 -80.50390625 175.31640625 C-97.48839003 183.03806314 -113.21342091 192.52444638 -127.78125 204.203125 C-128.76609375 204.98429688 -129.7509375 205.76546875 -130.765625 206.5703125 C-145.33646291 218.37534711 -158.93709292 231.87381488 -169.78125 247.203125 C-170.26255371 247.88310547 -170.74385742 248.56308594 -171.23974609 249.26367188 C-182.69175754 265.62053905 -192.1756211 282.74311992 -199.78125 301.203125 C-200.24144531 302.30140625 -200.70164062 303.3996875 -201.17578125 304.53125 C-207.01585232 319.58565543 -210.16018272 335.97012082 -212.59375 351.890625 C-212.70541504 352.61781738 -212.81708008 353.34500977 -212.93212891 354.09423828 C-214.73811378 366.97232181 -214.931652 379.94759252 -214.93946838 392.92674255 C-214.9440466 394.56073613 -214.94904842 396.19472856 -214.95443195 397.82871968 C-214.96787917 402.27564543 -214.97539197 406.72256365 -214.98185861 411.16950428 C-214.98992228 415.98115544 -215.00359915 420.79279118 -215.01657104 425.60443115 C-215.03824984 433.92664032 -215.05642541 442.24885111 -215.07217598 450.57107353 C-215.0949534 462.60339646 -215.12308499 474.63570227 -215.15249526 486.6680106 C-215.20007509 506.19281002 -215.24336509 525.71761649 -215.28393555 545.24243164 C-215.32333952 564.20142158 -215.36477737 583.16040528 -215.40893555 602.11938477 C-215.41165982 603.28933318 -215.41438409 604.45928159 -215.41719092 605.66468298 C-215.4308712 611.53436354 -215.44459132 617.40404401 -215.45833123 623.27372444 C-215.57214493 671.91684569 -215.67819319 720.55997953 -215.78125 769.203125 C-266.60125 769.203125 -317.42125 769.203125 -369.78125 769.203125 C-369.84749755 717.3207604 -369.90284714 665.43843599 -369.93444599 613.55604114 C-369.93819771 607.41838282 -369.94208071 601.28072459 -369.94604492 595.14306641 C-369.94683185 593.92126843 -369.94761878 592.69947045 -369.94842956 591.44064829 C-369.96145162 571.70754502 -369.98508767 551.97446822 -370.01270839 532.2413806 C-370.04085193 511.96430453 -370.0574451 491.68724223 -370.06351548 471.41014743 C-370.06761344 458.91758562 -370.08051391 446.42509863 -370.1049994 433.93255988 C-370.12096731 425.34349156 -370.1256256 416.75446142 -370.12175413 408.16537938 C-370.11984962 403.22425928 -370.12258104 398.28326908 -370.13886642 393.34217262 C-370.20550479 372.07420532 -369.75852671 351.30325895 -366.78125 330.203125 C-366.67164802 329.4173503 -366.56204604 328.63157559 -366.44912279 327.82198954 C-365.89460681 323.90971908 -365.25891025 320.02440954 -364.53125 316.140625 C-364.32000488 314.99819336 -364.10875977 313.85576172 -363.89111328 312.67871094 C-354.50894938 263.60588527 -335.71225042 215.7011064 -307.78125 174.203125 C-306.95173828 172.96804199 -306.95173828 172.96804199 -306.10546875 171.70800781 C-298.67028316 160.71047879 -290.84030488 150.15128558 -282.28564453 140 C-280.90773513 138.35420104 -279.55790373 136.68987195 -278.21484375 135.015625 C-271.25108584 126.46889503 -263.48749492 118.69691196 -255.71875 110.890625 C-255.16393951 110.33054749 -254.60912903 109.77046997 -254.0375061 109.19342041 C-246.93996357 102.04387211 -239.66823249 95.48188399 -231.78125 89.203125 C-230.70212891 88.28084679 -229.62905859 87.35136261 -228.56640625 86.41015625 C-182.32465606 45.74129991 -122.41708048 20.17351482 -62.78125 7.203125 C-62.03085449 7.03973633 -61.28045898 6.87634766 -60.50732422 6.70800781 C-40.72408608 2.49880821 -20.22055013 0.08813535 0 0 Z " fill="#C0FE00" transform="translate(1025.78125,654.796875)" data-index="4" style="opacity: 1;"/>
<path d="M0 0 C60.2971875 -0.12375 60.2971875 -0.12375 121.8125 -0.25 C140.78649292 -0.30462402 140.78649292 -0.30462402 160.14379883 -0.36035156 C175.70056152 -0.37841797 175.70056152 -0.37841797 183.00468445 -0.3817749 C188.05940407 -0.38547159 193.11395224 -0.40034063 198.16862488 -0.42230225 C204.64963909 -0.45008072 211.13041 -0.4579025 217.61147821 -0.4522891 C219.96910102 -0.45345997 222.32673383 -0.46118688 224.68430483 -0.47686052 C286.26447806 -0.86668401 345.39556885 21.24905018 390 64 C390.87809326 64.82927002 390.87809326 64.82927002 391.77392578 65.67529297 C401.63305758 75.02057689 410.12832038 84.93291207 418 96 C418.67820801 96.95108643 418.67820801 96.95108643 419.37011719 97.92138672 C428.31741125 110.60172406 435.96620605 124.08923962 442.3125 138.25 C442.61365723 138.92135986 442.91481445 139.59271973 443.22509766 140.28442383 C450.19597927 156.32434961 454.296805 172.96240423 458 190 C458.19932129 190.90572754 458.39864258 191.81145508 458.60400391 192.74462891 C461.24090101 205.33246272 461.27542318 218.00553619 461.3125 230.8125 C461.31635712 231.64239441 461.32021423 232.47228882 461.32418823 233.32733154 C461.36097175 249.40113285 459.7055766 264.53417784 455.8125 280.1875 C455.50280273 281.44071045 455.19310547 282.6939209 454.87402344 283.98510742 C445.15945516 322.48166788 427.79554617 357.42814429 400.42578125 386.421875 C398.31314056 388.66719361 396.30219384 390.9590021 394.3125 393.3125 C390.85717715 397.28123167 387.03211983 400.63069439 383 404 C382.1028125 404.7734375 381.205625 405.546875 380.28125 406.34375 C349.28958906 432.76821881 311.49394582 449.76797718 271.65136719 457.48291016 C269.94466586 457.81576406 268.2415926 458.16811615 266.54394531 458.54443359 C249.76190963 462.0501149 231.95716676 461.14246396 214.90356445 461.11352539 C212.50830938 461.11321833 210.11305422 461.11335379 207.71779919 461.11389065 C201.36035829 461.11411445 195.00293659 461.1083602 188.64550018 461.10128021 C182.65831956 461.09554355 176.67114338 461.09531484 170.68395996 461.09460449 C153.22680414 461.08937767 135.76965182 461.07541641 118.3125 461.0625 C59.7478125 461.0315625 59.7478125 461.0315625 0 461 C0 308.87 0 156.74 0 0 Z " fill="#1A1A19" transform="translate(810,1731)" data-index="5" style="opacity: 1; visibility: visible; fill: rgb(0, 0, 0);"/>
</svg>