<?xml version="1.0" encoding="utf-8"?>
<svg xmlns="http://www.w3.org/2000/svg" viewBox="-1293.8 -1253.3 2999.9504 3000.02" width="2999.95px" height="3000.02px">
  <path d="M -1293.8 -1253.3 C -303.85 -1253.3 686.154 -1253.3 1706.15 -1253.3 C 1706.15 -263.28 1706.15 726.716 1706.15 1746.72 C 716.154 1746.72 -273.85 1746.72 -1293.8 1746.72 C -1293.8 756.716 -1293.8 -233.28 -1293.8 -1253.3 Z" data-index="0" style="opacity: 1; visibility: visible; fill: rgb(13, 13, 13);" transform="matrix(0.9999999999999999, 0, 0, 0.9999999999999999, -4.547473508864641e-13, -2.2737367544323206e-13)"/>
  <path d="M -637.85 323.716 C -570.61 323.655 -503.37 323.593 -434.1 323.529 C -412.89 323.502 -391.69 323.474 -369.85 323.446 C -343.88 323.433 -343.88 323.433 -331.72 323.43 C -323.25 323.427 -314.78 323.416 -306.31 323.4 C -296.53 323.38 -286.74 323.372 -276.95 323.376 C -271.95 323.378 -266.96 323.375 -261.96 323.359 C -240.7 323.292 -219.94 323.74 -198.85 326.716 C -198.06 326.826 -197.28 326.936 -196.47 327.049 C -192.55 327.603 -188.67 328.239 -184.78 328.966 C -183.65 329.176 -182.51 329.386 -181.33 329.602 C -163.66 332.972 -146.42 337.708 -129.35 343.341 C -128.25 343.701 -127.16 344.061 -126.04 344.432 C -119.09 346.791 -112.48 349.603 -105.85 352.716 C -104.37 353.374 -102.88 354.027 -101.4 354.673 C -91.383 359.051 -81.533 363.654 -71.846 368.716 C -70.827 369.245 -70.827 369.245 -69.788 369.784 C -44.528 382.99 -21.231 399.925 0.154 418.716 C 1.055 419.505 1.956 420.294 2.884 421.107 C 9.745 427.262 16.297 433.728 22.841 440.216 C 24.16 441.516 24.16 441.516 25.505 442.841 C 31.491 448.819 36.877 455.11 42.154 461.716 C 43.017 462.744 43.886 463.767 44.763 464.783 C 85.09 511.806 111.184 570.502 124.154 630.716 C 124.316 631.462 124.478 632.209 124.644 632.977 C 128.876 652.858 131.3 673.458 131.322 693.779 C 131.325 694.891 131.328 696.003 131.332 697.149 C 131.337 699.488 131.339 701.828 131.339 704.167 C 131.341 707.68 131.359 711.192 131.378 714.705 C 131.412 728.173 130.865 741.356 129.154 754.716 C 129.013 755.871 128.872 757.026 128.727 758.215 C 125.468 783.511 119.565 808.148 111.045 832.173 C 110.225 834.512 109.441 836.859 108.677 839.216 C 108.458 839.892 108.239 840.568 108.014 841.264 C 107.461 842.976 106.909 844.688 106.357 846.4 C 98.365 868.429 86.89 891.079 74.154 910.716 C 73.55 911.656 73.55 911.656 72.934 912.614 C 70.082 917.034 67.143 921.388 64.154 925.716 C 63.757 926.295 63.361 926.873 62.952 927.468 C 56.655 936.614 49.839 945.278 42.736 953.81 C 41.3 955.541 39.881 957.285 38.466 959.033 C 31.907 967.02 24.704 974.35 17.404 981.654 C 16.908 982.151 16.412 982.648 15.901 983.16 C 10.165 988.894 4.353 994.482 -1.846 999.716 C -2.485 1000.26 -3.124 1000.81 -3.782 1001.37 C -13.439 1009.58 -23.372 1017.21 -33.842 1024.35 C -35.718 1025.63 -37.58 1026.93 -39.44 1028.23 C -55.077 1039.05 -71.88 1047.94 -88.971 1056.22 C -90.155 1056.79 -91.34 1057.37 -92.56 1057.96 C -100.19 1061.6 -107.91 1064.8 -115.85 1067.72 C -116.81 1068.07 -117.77 1068.43 -118.77 1068.79 C -120.52 1069.43 -122.27 1070.07 -124.03 1070.7 C -125.94 1071.39 -127.84 1072.1 -129.73 1072.83 C -151.31 1080.97 -174.1 1085.81 -196.85 1089.34 C -197.91 1089.51 -197.91 1089.51 -199 1089.68 C -201.61 1090.06 -204.23 1090.39 -206.85 1090.72 C -208.01 1090.88 -209.17 1091.05 -210.36 1091.21 C -228.11 1093.5 -246.04 1092.99 -263.9 1092.95 C -269 1092.94 -274.1 1092.94 -279.2 1092.94 C -289.07 1092.94 -298.95 1092.94 -308.82 1092.92 C -320.26 1092.91 -331.69 1092.91 -343.13 1092.91 C -373.28 1092.89 -403.44 1092.87 -433.6 1092.84 C -501 1092.8 -568.4 1092.76 -637.85 1092.72 C -637.85 838.946 -637.85 585.176 -637.85 323.716 Z" fill="#C0FE00" data-index="1" style="opacity: 1;" transform="matrix(0.9999999999999999, 0, 0, 0.9999999999999999, -4.547473508864641e-13, -2.2737367544323206e-13)"/>
  <path d="M 653.935 323.513 C 655.02 323.506 656.105 323.5 657.222 323.492 C 660.699 323.475 664.176 323.469 667.654 323.466 C 668.837 323.465 670.02 323.463 671.239 323.461 C 691.393 323.46 711.064 324.143 730.86 328.243 C 734.115 328.915 737.384 329.498 740.654 330.091 C 755.392 332.846 769.626 336.284 783.874 340.977 C 786.071 341.69 788.275 342.37 790.486 343.037 C 791.526 343.352 791.526 343.352 792.587 343.674 C 794.44 344.233 796.295 344.79 798.15 345.345 C 840.468 359.125 881.998 384.026 915.385 413.218 C 916.74 414.366 918.121 415.485 919.513 416.589 C 926.662 422.282 933.165 428.418 939.598 434.9 C 941.277 436.59 942.967 438.269 944.658 439.947 C 951.282 446.563 957.326 453.381 963.154 460.716 C 964.088 461.818 965.03 462.915 965.982 464.002 C 1008.89 513.208 1041.95 582.096 1048.73 647.373 C 1049.07 650.083 1049.54 652.65 1050.11 655.316 C 1051.13 660.351 1051.79 665.354 1052.26 670.466 C 1052.35 671.368 1052.43 672.269 1052.52 673.197 C 1053.39 683.368 1053.46 693.515 1053.4 703.716 C 1053.4 704.694 1053.4 705.672 1053.39 706.68 C 1053.22 744.245 1049.22 780.898 1038.3 816.965 C 1037.71 818.911 1037.14 820.859 1036.56 822.808 C 1034.68 829.054 1032.7 835.175 1030.19 841.196 C 1028.98 844.129 1027.87 847.094 1026.75 850.064 C 1006.75 902.181 974.402 947.351 935.279 986.716 C 934.78 987.22 934.281 987.723 933.767 988.242 C 897.86 1024 852.24 1050.75 805.154 1068.72 C 804.51 1068.96 803.866 1069.21 803.202 1069.47 C 789.954 1074.51 776.416 1079.01 762.716 1082.65 C 761.979 1082.85 761.242 1083.05 760.483 1083.26 C 755.292 1084.59 750.59 1085.11 745.154 1085.72 C 745.154 1032.92 745.154 980.116 745.154 925.716 C 753.074 922.416 760.994 919.116 769.154 915.716 C 791.81 904.548 811.904 890.126 830.154 872.716 C 831.006 871.917 831.858 871.118 832.736 870.295 C 839.625 863.655 845.414 856.341 851.154 848.716 C 851.877 847.765 852.6 846.814 853.345 845.834 C 867.129 827.329 877.681 806.776 885.331 785.048 C 886.06 782.982 886.815 780.927 887.579 778.873 C 890.224 771.471 892.131 764.006 893.841 756.341 C 894.044 755.445 894.246 754.549 894.455 753.625 C 897.586 738.943 898.466 724.48 898.359 709.509 C 898.341 706.795 898.339 704.082 898.339 701.369 C 898.334 699.633 898.329 697.897 898.322 696.162 C 898.32 694.953 898.32 694.953 898.318 693.719 C 898.29 690.464 898.19 687.825 897.154 684.716 C 896.996 682.913 896.871 681.106 896.767 679.298 C 896.264 672.802 894.942 666.708 893.341 660.404 C 893.071 659.316 892.801 658.228 892.523 657.107 C 891.743 653.974 890.949 650.845 890.154 647.716 C 889.772 646.171 889.39 644.625 889.009 643.08 C 887.498 637.124 885.873 631.518 883.197 625.982 C 881.971 623.319 881.017 620.601 880.029 617.841 C 871.924 596.735 859.116 576.616 844.154 559.716 C 843.487 558.942 842.821 558.167 842.134 557.369 C 839.855 554.769 837.521 552.236 835.154 549.716 C 834.631 549.159 834.108 548.602 833.569 548.028 C 824.194 538.129 814.234 529.645 803.154 521.716 C 802.557 521.28 801.96 520.844 801.345 520.395 C 777.364 502.959 749.677 492.076 721.154 484.716 C 720.385 484.515 719.616 484.314 718.823 484.107 C 683.901 475.14 646.84 476.721 612.154 485.716 C 611.089 485.992 610.024 486.268 608.928 486.552 C 570.121 496.832 537.181 516.184 508.154 543.716 C 507.65 544.191 507.147 544.666 506.629 545.154 C 499.172 552.232 492.605 559.736 486.456 567.974 C 485.219 569.63 483.961 571.269 482.701 572.908 C 470.149 589.54 460.62 608.322 453.154 627.716 C 452.869 628.445 452.585 629.174 452.292 629.925 C 448.571 639.656 446.126 649.61 443.904 659.779 C 443.657 660.902 443.411 662.025 443.157 663.182 C 440.064 677.995 438.715 692.726 438.716 707.841 C 438.714 708.607 438.713 709.373 438.711 710.161 C 438.727 726.406 440.931 741.808 444.154 757.716 C 444.456 759.336 444.759 760.956 445.06 762.576 C 451.592 795.473 468.928 827.991 490.154 853.716 C 490.617 854.282 491.081 854.847 491.559 855.429 C 501.704 867.723 512.494 878.978 525.154 888.716 C 525.688 889.132 526.222 889.548 526.772 889.976 C 546.659 905.379 568.533 917.127 592.154 925.716 C 592.154 978.516 592.154 1031.32 592.154 1085.72 C 583.605 1084.4 575.695 1083.02 567.466 1080.65 C 566.401 1080.35 565.336 1080.05 564.238 1079.73 C 507.214 1063.16 454.526 1034.76 410.919 994.263 C 408.72 992.238 406.495 990.275 404.216 988.341 C 395.56 980.826 387.546 972.466 380.154 963.716 C 379.267 962.704 378.379 961.692 377.49 960.681 C 350.448 929.804 328.093 893.743 312.904 855.601 C 312.29 854.058 311.659 852.521 311.025 850.986 C 310.033 848.575 309.086 846.152 308.154 843.716 C 307.897 843.047 307.641 842.377 307.377 841.687 C 303.489 831.479 299.9 821.301 297.154 810.716 C 296.955 809.957 296.757 809.198 296.553 808.416 C 288.242 776.456 283.77 744.627 283.893 711.587 C 283.904 708.154 283.893 704.722 283.88 701.289 C 283.871 687.978 284.434 674.918 286.154 661.716 C 286.24 661.041 286.327 660.366 286.417 659.671 C 292.245 615.298 305.482 572.328 326.165 532.625 C 327.179 530.668 328.169 528.701 329.158 526.732 C 341.103 503.232 356.314 481.318 373.654 461.487 C 374.807 460.126 375.929 458.74 377.038 457.344 C 382.645 450.304 388.679 443.912 395.074 437.59 C 396.723 435.96 398.364 434.321 400.003 432.681 C 405.548 427.155 411.157 421.756 417.154 416.716 C 417.786 416.178 418.418 415.639 419.069 415.084 C 440.159 397.188 462.76 381.959 487.097 368.835 C 488.978 367.812 490.841 366.765 492.701 365.705 C 527.882 346.084 568.571 333.631 608.336 328.118 C 611.066 327.729 613.785 327.299 616.505 326.849 C 617.347 326.71 618.188 326.572 619.055 326.429 C 620.576 326.176 622.097 325.923 623.617 325.666 C 633.671 324.045 643.763 323.557 653.935 323.513 Z" fill="#C0FE00" data-index="2" style="opacity: 1;" transform="matrix(0.9999999999999999, 0, 0, 0.9999999999999999, -4.547473508864641e-13, -2.2737367544323206e-13)"/>
  <path d="M 745.154 -588.28 C 755.978 -586.37 766.062 -584.48 776.466 -581.28 C 777.099 -581.09 777.731 -580.9 778.382 -580.7 C 802.976 -573.18 826.274 -562.93 849.154 -551.28 C 850.456 -550.62 850.456 -550.62 851.784 -549.95 C 876.855 -537.01 900.02 -519.9 921.154 -501.28 C 921.872 -500.65 922.591 -500.02 923.332 -499.37 C 929.647 -493.76 935.698 -487.93 941.668 -481.95 C 943.213 -480.41 944.766 -478.88 946.32 -477.34 C 952.716 -470.98 958.539 -464.36 964.154 -457.28 C 965.017 -456.26 965.885 -455.23 966.763 -454.22 C 1011.52 -402.02 1040.41 -333.61 1048.85 -265.6 C 1049.24 -262.61 1049.75 -259.63 1050.28 -256.66 C 1051.95 -247 1052.31 -237.29 1052.36 -227.5 C 1052.36 -226.42 1052.37 -225.34 1052.38 -224.22 C 1052.61 -179.05 1052.61 -179.05 1049.15 -158.28 C 1048.85 -156.4 1048.85 -156.4 1048.54 -154.47 C 1043.98 -126.75 1037.88 -98.227 1026.17 -72.566 C 1025.14 -70.262 1024.22 -67.935 1023.31 -65.584 C 1020.73 -59.072 1017.7 -52.774 1014.65 -46.471 C 1014.35 -45.836 1014.04 -45.201 1013.72 -44.546 C 1001.73 -19.829 987.382 3.279 970.154 24.716 C 969.42 25.642 968.687 26.568 967.931 27.521 C 963.085 33.555 957.967 39.279 952.704 44.947 C 950.658 47.169 948.673 49.417 946.716 51.716 C 939.516 60.007 931.524 67.624 923.154 74.716 C 922.14 75.605 921.127 76.494 920.115 77.384 C 887.938 105.56 850.646 127.753 810.977 143.575 C 808.032 144.766 805.112 146.007 802.189 147.252 C 796.306 149.707 790.351 151.785 784.279 153.716 C 783.205 154.059 782.132 154.401 781.026 154.754 C 771.289 157.793 761.466 160.147 751.485 162.226 C 749.444 162.655 747.41 163.115 745.376 163.58 C 738.798 165.077 732.194 166.252 725.529 167.279 C 724.796 167.394 724.064 167.509 723.309 167.627 C 720.595 168.029 717.877 168.378 715.154 168.716 C 714.501 168.8 713.849 168.884 713.177 168.97 C 699.336 170.701 685.611 171.028 671.672 170.977 C 668.158 170.966 664.644 170.977 661.13 170.99 C 642.291 171.003 624.037 169.421 605.466 166.341 C 604.802 166.232 604.137 166.123 603.452 166.01 C 540.386 155.606 480.084 128.594 430.154 88.716 C 429.224 87.98 428.295 87.244 427.337 86.486 C 421.309 81.641 415.587 76.526 409.923 71.267 C 407.701 69.221 405.453 67.236 403.154 65.279 C 394.862 58.078 387.25 50.084 380.154 41.716 C 379.308 40.76 378.462 39.803 377.591 38.818 C 351.422 9.096 331.813 -24.521 315.154 -60.284 C 314.715 -61.203 314.276 -62.122 313.823 -63.069 C 310.546 -70.039 308.03 -77.15 305.654 -84.471 C 305.068 -86.254 305.068 -86.254 304.471 -88.074 C 303.358 -91.475 302.255 -94.879 301.154 -98.284 C 300.743 -99.54 300.743 -99.54 300.323 -100.83 C 300.085 -101.56 299.848 -102.28 299.603 -103.03 C 299.408 -103.63 299.213 -104.23 299.012 -104.84 C 294.825 -118.13 291.715 -131.56 289.398 -145.29 C 289.031 -147.46 288.65 -149.62 288.267 -151.78 C 284.938 -170.95 283.821 -189.91 283.893 -209.36 C 283.904 -212.78 283.893 -216.2 283.88 -219.62 C 283.869 -237.35 284.734 -254.77 288.372 -272.15 C 289.101 -275.74 289.578 -279.33 290.064 -282.95 C 294.572 -315.02 306.303 -347.17 320.154 -376.28 C 320.591 -377.22 321.029 -378.15 321.48 -379.11 C 333.723 -405.06 349.377 -428.82 367.154 -451.28 C 367.879 -452.2 368.605 -453.12 369.353 -454.07 C 373.925 -459.77 378.735 -465.19 383.729 -470.52 C 386.392 -473.36 388.983 -476.24 391.517 -479.19 C 395.183 -483.4 399.132 -487.23 403.216 -491.03 C 403.962 -491.73 404.707 -492.42 405.475 -493.14 C 422.74 -509.16 441.203 -523.73 461.154 -536.28 C 461.874 -536.74 462.594 -537.19 463.336 -537.66 C 497.873 -559.26 534.906 -574.77 574.154 -585.47 C 574.857 -585.67 575.561 -585.86 576.286 -586.07 C 581.573 -587.42 585.369 -587.28 591.154 -587.28 C 591.154 -535.14 591.154 -483 591.154 -429.28 C 582.154 -425.28 582.154 -425.28 577.97 -423.5 C 522.961 -399.9 478.59 -355.65 455.505 -300.23 C 454.326 -297.27 453.23 -294.28 452.154 -291.28 C 451.715 -290.09 451.277 -288.89 450.826 -287.66 C 447.683 -278.72 445.517 -269.71 443.609 -260.44 C 443.14 -258.22 442.626 -256.02 442.111 -253.81 C 436.332 -227.77 437.77 -198.4 442.154 -172.28 C 442.363 -170.98 442.363 -170.98 442.576 -169.65 C 444.7 -156.65 448.433 -144.56 453.154 -132.28 C 453.42 -131.57 453.687 -130.86 453.961 -130.13 C 461.179 -110.94 470.863 -92.695 483.154 -76.284 C 483.59 -75.693 484.026 -75.103 484.476 -74.495 C 520.552 -25.966 575.493 5.636 635.154 14.716 C 636.354 14.903 637.554 15.09 638.79 15.283 C 667.026 19.249 696.741 17.581 724.154 9.716 C 725.048 9.493 725.943 9.27 726.865 9.041 C 769.786 -1.723 814.114 -27.402 842.154 -62.284 C 842.983 -63.298 843.811 -64.313 844.665 -65.358 C 863.948 -89.226 880.947 -117.92 888.591 -147.85 C 888.796 -148.64 889 -149.43 889.211 -150.25 C 890.944 -157.14 892.464 -164.08 893.904 -171.03 C 894.114 -172.03 894.325 -173.02 894.542 -174.04 C 903.047 -216.54 896.447 -263.9 879.154 -303.28 C 878.655 -304.43 878.655 -304.43 878.147 -305.6 C 862.85 -340.32 838.679 -371.65 808.154 -394.28 C 807.591 -394.71 807.028 -395.13 806.448 -395.57 C 793.845 -405.03 780.483 -412.85 766.279 -419.66 C 765.436 -420.06 764.592 -420.47 763.724 -420.88 C 757.601 -423.76 751.566 -425.95 745.154 -428.28 C 745.154 -481.08 745.154 -533.88 745.154 -588.28 Z" fill="#C0FE00" data-index="3" style="opacity: 1;" transform="matrix(0.9999999999999999, 0, 0, 0.9999999999999999, -4.547473508864641e-13, -2.2737367544323206e-13)"/>
  <path d="M -268.06 -598.49 C -266.98 -598.49 -265.9 -598.5 -264.78 -598.51 C -261.3 -598.52 -257.82 -598.53 -254.35 -598.53 C -253.16 -598.53 -251.97 -598.53 -250.74 -598.54 C -233.25 -598.52 -216.14 -598.11 -198.85 -595.28 C -197.61 -595.09 -196.38 -594.89 -195.1 -594.68 C -173.41 -591.14 -173.41 -591.14 -167.88 -589.29 C -164.78 -588.26 -161.75 -587.61 -158.55 -587 C -150.81 -585.38 -143.37 -583.1 -135.87 -580.63 C -133.65 -579.91 -131.44 -579.2 -129.22 -578.49 C -121.16 -575.88 -113.48 -572.95 -105.85 -569.28 C -104.37 -568.62 -102.88 -567.97 -101.4 -567.33 C -91.383 -562.95 -81.533 -558.35 -71.846 -553.28 C -70.827 -552.75 -70.827 -552.75 -69.788 -552.22 C -44.528 -539.01 -21.231 -522.08 0.154 -503.28 C 1.055 -502.5 1.956 -501.71 2.884 -500.89 C 9.745 -494.74 16.297 -488.27 22.841 -481.78 C 24.16 -480.48 24.16 -480.48 25.505 -479.16 C 30.745 -473.93 35.562 -468.51 40.191 -462.73 C 41.738 -460.8 43.308 -458.92 44.947 -457.07 C 88.927 -407.06 115.815 -341.08 126.904 -276.03 C 127.102 -274.88 127.301 -273.72 127.506 -272.52 C 128.113 -268.79 128.645 -265.04 129.154 -261.28 C 129.33 -259.98 129.507 -258.68 129.689 -257.35 C 131.853 -239.34 131.425 -221.2 131.386 -203.1 C 131.377 -198.07 131.38 -193.04 131.382 -188.01 C 131.383 -179.32 131.376 -170.64 131.365 -161.95 C 131.349 -149.39 131.344 -136.82 131.341 -124.26 C 131.337 -103.88 131.324 -83.488 131.305 -63.101 C 131.286 -43.31 131.272 -23.519 131.264 -3.728 C 131.263 -1.895 131.263 -1.895 131.262 -0.025 C 131.259 6.107 131.257 12.239 131.254 18.371 C 131.234 69.153 131.197 119.934 131.154 170.716 C 80.334 170.716 29.514 170.716 -22.846 170.716 C -22.866 158.932 -22.886 147.147 -22.906 135.005 C -22.971 97.235 -23.046 59.464 -23.126 21.693 C -23.139 15.82 -23.151 9.946 -23.164 4.072 C -23.166 2.903 -23.169 1.734 -23.171 0.529 C -23.211 -18.367 -23.244 -37.263 -23.274 -56.159 C -23.305 -75.569 -23.344 -94.979 -23.389 -114.39 C -23.417 -126.35 -23.439 -138.31 -23.454 -150.28 C -23.464 -158.5 -23.482 -166.72 -23.505 -174.94 C -23.519 -179.67 -23.529 -184.4 -23.53 -189.13 C -23.469 -223.95 -23.469 -223.95 -28.096 -258.41 C -28.417 -260.02 -28.417 -260.02 -28.745 -261.66 C -31.756 -276.27 -35.518 -290.73 -41.846 -304.28 C -42.551 -305.86 -43.255 -307.43 -43.96 -309.01 C -51.681 -325.99 -61.168 -341.72 -72.846 -356.28 C -73.627 -357.27 -74.409 -358.25 -75.213 -359.27 C -87.019 -373.84 -100.52 -387.44 -115.85 -398.28 C -116.53 -398.76 -117.21 -399.25 -117.91 -399.74 C -168.85 -435.41 -229.73 -450.49 -291.33 -440.25 C -309.26 -437.06 -327.27 -433.02 -343.85 -425.28 C -345.42 -424.58 -347 -423.88 -348.57 -423.17 C -365.55 -415.45 -381.28 -405.96 -395.85 -394.28 C -396.83 -393.5 -397.82 -392.72 -398.83 -391.92 C -413.4 -380.11 -427 -366.61 -437.85 -351.28 C -438.33 -350.6 -438.81 -349.92 -439.31 -349.22 C -450.76 -332.87 -460.24 -315.74 -467.85 -297.28 C -468.31 -296.19 -468.77 -295.09 -469.24 -293.95 C -475.08 -278.9 -478.23 -262.52 -480.66 -246.6 C -480.77 -245.87 -480.88 -245.14 -481 -244.39 C -482.8 -231.51 -483 -218.54 -483 -205.56 C -483.01 -203.93 -483.01 -202.29 -483.02 -200.66 C -483.03 -196.21 -483.04 -191.76 -483.05 -187.32 C -483.06 -182.51 -483.07 -177.69 -483.08 -172.88 C -483.1 -164.56 -483.12 -156.24 -483.14 -147.92 C -483.16 -135.88 -483.19 -123.85 -483.22 -111.82 C -483.26 -92.294 -483.31 -72.769 -483.35 -53.244 C -483.39 -34.285 -483.43 -15.326 -483.47 3.633 C -483.48 4.803 -483.48 5.973 -483.48 7.178 C -483.5 13.048 -483.51 18.917 -483.52 24.787 C -483.64 73.43 -483.74 122.073 -483.85 170.716 C -534.67 170.716 -585.49 170.716 -637.85 170.716 C -637.91 118.834 -637.97 66.952 -638 15.069 C -638 8.932 -638.01 2.794 -638.01 -3.344 C -638.01 -4.565 -638.01 -5.787 -638.01 -7.046 C -638.03 -26.779 -638.05 -46.512 -638.08 -66.245 C -638.11 -86.522 -638.12 -106.8 -638.13 -127.08 C -638.13 -139.57 -638.15 -152.06 -638.17 -164.55 C -638.19 -173.14 -638.19 -181.73 -638.19 -190.32 C -638.18 -195.26 -638.19 -200.2 -638.2 -205.15 C -638.27 -226.41 -637.82 -247.18 -634.85 -268.28 C -634.74 -269.07 -634.63 -269.86 -634.51 -270.67 C -633.96 -274.58 -633.32 -278.46 -632.6 -282.35 C -632.38 -283.49 -632.17 -284.63 -631.96 -285.81 C -622.57 -334.88 -603.78 -382.79 -575.85 -424.28 C -575.02 -425.52 -575.02 -425.52 -574.17 -426.78 C -566.74 -437.78 -558.9 -448.33 -550.35 -458.49 C -548.97 -460.13 -547.62 -461.8 -546.28 -463.47 C -539.32 -472.02 -531.55 -479.79 -523.78 -487.6 C -523.23 -488.16 -522.67 -488.72 -522.1 -489.29 C -515 -496.44 -507.73 -503 -499.85 -509.28 C -498.77 -510.21 -497.69 -511.13 -496.63 -512.08 C -450.39 -552.75 -390.48 -578.31 -330.85 -591.28 C -330.1 -591.45 -329.35 -591.61 -328.57 -591.78 C -308.79 -595.99 -288.29 -598.4 -268.06 -598.49 Z" fill="#C0FE00" data-index="4" style="opacity: 1;" transform="matrix(0.9999999999999999, 0, 0, 0.9999999999999999, -4.547473508864641e-13, -2.2737367544323206e-13)"/>
  <path d="M -483.85 477.716 C -423.55 477.593 -423.55 477.593 -362.03 477.466 C -343.06 477.412 -343.06 477.412 -323.7 477.356 C -308.15 477.338 -308.15 477.338 -300.84 477.335 C -295.79 477.331 -290.73 477.316 -285.68 477.294 C -279.2 477.266 -272.72 477.259 -266.24 477.264 C -263.88 477.263 -261.52 477.255 -259.16 477.24 C -197.58 476.85 -138.45 498.965 -93.846 541.716 C -92.968 542.546 -92.968 542.546 -92.072 543.392 C -82.213 552.737 -73.718 562.649 -65.846 573.716 C -65.168 574.668 -65.168 574.668 -64.476 575.638 C -55.529 588.318 -47.88 601.806 -41.534 615.966 C -41.233 616.638 -40.931 617.309 -40.621 618.001 C -33.65 634.041 -29.549 650.679 -25.846 667.716 C -25.647 668.622 -25.448 669.528 -25.242 670.461 C -22.605 683.049 -22.571 695.722 -22.534 708.529 C -22.53 709.359 -22.526 710.189 -22.522 711.044 C -22.485 727.118 -24.141 742.251 -28.034 757.904 C -28.343 759.157 -28.653 760.41 -28.972 761.702 C -38.687 800.198 -56.051 835.145 -83.421 864.138 C -85.533 866.384 -87.544 868.675 -89.534 871.029 C -92.989 874.998 -96.814 878.347 -100.85 881.716 C -101.74 882.49 -102.64 883.263 -103.56 884.06 C -134.56 910.485 -172.35 927.484 -212.19 935.199 C -213.9 935.532 -215.6 935.885 -217.3 936.261 C -234.08 939.767 -251.89 938.859 -268.94 938.83 C -271.34 938.83 -273.73 938.83 -276.13 938.83 C -282.49 938.831 -288.84 938.825 -295.2 938.818 C -301.19 938.812 -307.18 938.812 -313.16 938.811 C -330.62 938.806 -348.08 938.792 -365.53 938.779 C -424.1 938.748 -424.1 938.748 -483.85 938.716 C -483.85 786.586 -483.85 634.456 -483.85 477.716 Z" fill="#1A1A19" data-index="5" style="opacity: 1; visibility: visible; fill: rgb(0, 0, 0);" transform="matrix(0.9999999999999999, 0, 0, 0.9999999999999999, -4.547473508864641e-13, -2.2737367544323206e-13)"/>
</svg>