<?xml version="1.0" encoding="utf-8"?>
<svg xmlns="http://www.w3.org/2000/svg" viewBox="-592.3965 -588.51 1691.6326 1691.556" width="1691.63px" height="1691.56px">
  <path d="M -592.03 333.738 C -524.8 333.676 -457.56 333.614 -388.28 333.55 C -367.08 333.523 -345.88 333.496 -324.04 333.467 C -298.07 333.454 -298.07 333.454 -285.9 333.451 C -277.44 333.449 -268.97 333.438 -260.5 333.421 C -250.71 333.402 -240.93 333.393 -231.14 333.397 C -226.14 333.399 -221.15 333.397 -216.15 333.38 C -194.89 333.314 -174.13 333.762 -153.03 336.738 C -152.25 336.847 -151.46 336.957 -150.65 337.07 C -146.74 337.624 -142.86 338.26 -138.97 338.988 C -137.83 339.198 -136.69 339.407 -135.52 339.624 C -117.85 342.993 -100.61 347.729 -83.534 353.363 C -82.443 353.723 -81.352 354.083 -80.227 354.454 C -73.28 356.812 -66.672 359.624 -60.034 362.738 C -58.554 363.395 -57.071 364.048 -55.585 364.695 C -45.571 369.072 -35.721 373.675 -26.034 378.738 C -25.015 379.266 -25.015 379.266 -23.976 379.805 C 1.284 393.011 24.581 409.946 45.966 428.738 C 46.867 429.527 47.768 430.316 48.696 431.128 C 55.557 437.283 62.109 443.75 68.653 450.238 C 69.972 451.537 69.972 451.537 71.317 452.862 C 77.303 458.84 82.689 465.131 87.966 471.738 C 88.829 472.765 89.698 473.789 90.575 474.804 C 130.902 521.827 156.996 580.523 169.966 640.738 C 170.128 641.484 170.29 642.23 170.456 642.999 C 174.688 662.88 177.112 683.479 177.134 703.8 C 177.137 704.912 177.14 706.024 177.144 707.17 C 177.149 709.509 177.151 711.849 177.151 714.188 C 177.153 717.701 177.171 721.213 177.19 724.726 C 177.224 738.194 176.677 751.378 174.966 764.738 C 174.825 765.892 174.684 767.047 174.539 768.237 C 171.28 793.532 165.377 818.17 156.857 842.195 C 156.037 844.534 155.253 846.88 154.489 849.238 C 154.27 849.913 154.051 850.589 153.826 851.285 C 153.273 852.997 152.721 854.709 152.169 856.421 C 144.177 878.451 132.702 901.1 119.966 920.738 C 119.362 921.677 119.362 921.677 118.746 922.636 C 115.894 927.055 112.955 931.41 109.966 935.738 C 109.569 936.316 109.173 936.894 108.764 937.49 C 102.467 946.635 95.651 955.299 88.548 963.831 C 87.112 965.562 85.693 967.306 84.278 969.054 C 77.719 977.041 70.516 984.371 63.216 991.675 C 62.72 992.172 62.224 992.669 61.713 993.181 C 55.977 998.915 50.165 1004.5 43.966 1009.74 C 43.327 1010.28 42.688 1010.83 42.03 1011.39 C 32.373 1019.6 22.44 1027.23 11.97 1034.37 C 10.094 1035.65 8.232 1036.95 6.372 1038.25 C -9.265 1049.07 -26.068 1057.96 -43.159 1066.24 C -44.343 1066.81 -45.528 1067.39 -46.748 1067.98 C -54.378 1071.63 -62.098 1074.82 -70.034 1077.74 C -70.998 1078.09 -71.962 1078.45 -72.955 1078.82 C -74.705 1079.46 -76.459 1080.09 -78.214 1080.72 C -80.123 1081.41 -82.024 1082.12 -83.917 1082.85 C -105.5 1090.99 -128.29 1095.84 -151.03 1099.36 C -152.1 1099.53 -152.1 1099.53 -153.18 1099.7 C -155.8 1100.08 -158.41 1100.41 -161.03 1100.74 C -162.19 1100.9 -163.36 1101.07 -164.55 1101.24 C -182.3 1103.52 -200.23 1103.01 -218.09 1102.97 C -223.19 1102.96 -228.28 1102.96 -233.39 1102.97 C -243.26 1102.97 -253.13 1102.96 -263.01 1102.94 C -274.44 1102.93 -285.88 1102.93 -297.32 1102.93 C -327.47 1102.92 -357.63 1102.89 -387.78 1102.86 C -455.19 1102.82 -522.59 1102.78 -592.03 1102.74 C -592.03 848.968 -592.03 595.198 -592.03 333.738 Z" fill="#C0FE00" data-index="1" style="opacity: 1;"/>
  <path d="M 699.747 333.535 C 700.832 333.528 701.917 333.521 703.034 333.514 C 706.511 333.497 709.988 333.49 713.466 333.488 C 714.649 333.486 715.832 333.484 717.051 333.483 C 737.205 333.481 756.876 334.164 776.672 338.265 C 779.927 338.936 783.196 339.519 786.466 340.113 C 801.204 342.867 815.438 346.306 829.686 350.999 C 831.883 351.711 834.087 352.391 836.298 353.058 C 837.338 353.373 837.338 353.373 838.399 353.695 C 840.252 354.255 842.107 354.811 843.962 355.367 C 886.28 369.147 927.81 394.047 961.197 423.24 C 962.552 424.388 963.933 425.506 965.325 426.611 C 972.474 432.303 978.977 438.44 985.41 444.921 C 987.089 446.611 988.779 448.29 990.47 449.968 C 997.094 456.585 1003.14 463.402 1008.97 470.738 C 1009.9 471.84 1010.84 472.936 1011.79 474.023 C 1054.7 523.229 1087.76 592.117 1094.54 657.394 C 1094.89 660.104 1095.36 662.671 1095.92 665.337 C 1096.94 670.373 1097.6 675.375 1098.08 680.488 C 1098.16 681.389 1098.24 682.29 1098.33 683.219 C 1099.21 693.389 1099.28 703.536 1099.22 713.738 C 1099.21 714.716 1099.21 715.694 1099.2 716.701 C 1099.04 754.267 1095.03 790.92 1084.11 826.987 C 1083.53 828.932 1082.95 830.881 1082.37 832.83 C 1080.49 839.076 1078.52 845.196 1076.01 851.217 C 1074.8 854.151 1073.68 857.115 1072.56 860.085 C 1052.56 912.202 1020.21 957.372 981.091 996.738 C 980.592 997.241 980.093 997.745 979.579 998.263 C 943.672 1034.02 898.052 1060.77 850.966 1078.74 C 850.322 1078.99 849.678 1079.23 849.014 1079.49 C 835.766 1084.53 822.228 1089.03 808.528 1092.67 C 807.791 1092.87 807.054 1093.07 806.295 1093.28 C 801.104 1094.61 796.402 1095.13 790.966 1095.74 C 790.966 1042.94 790.966 990.138 790.966 935.738 C 798.886 932.438 806.806 929.138 814.966 925.738 C 837.622 914.569 857.716 900.147 875.966 882.738 C 876.818 881.939 877.67 881.139 878.548 880.316 C 885.437 873.676 891.226 866.362 896.966 858.738 C 897.689 857.786 898.412 856.835 899.157 855.855 C 912.941 837.35 923.493 816.798 931.143 795.07 C 931.872 793.003 932.627 790.948 933.391 788.894 C 936.036 781.493 937.943 774.027 939.653 766.363 C 939.856 765.466 940.058 764.57 940.267 763.646 C 943.398 748.964 944.278 734.501 944.172 719.53 C 944.153 716.817 944.151 714.104 944.151 711.39 C 944.146 709.654 944.141 707.919 944.134 706.183 C 944.132 704.974 944.132 704.974 944.13 703.74 C 944.102 700.486 944.002 697.847 942.966 694.738 C 942.808 692.934 942.683 691.127 942.579 689.32 C 942.076 682.824 940.754 676.729 939.153 670.425 C 938.883 669.337 938.613 668.249 938.335 667.128 C 937.555 663.996 936.761 660.867 935.966 657.738 C 935.584 656.192 935.202 654.647 934.821 653.101 C 933.31 647.145 931.685 641.54 929.009 636.003 C 927.783 633.34 926.829 630.623 925.841 627.863 C 917.736 606.756 904.928 586.638 889.966 569.738 C 889.299 568.963 888.633 568.188 887.946 567.39 C 885.667 564.79 883.333 562.257 880.966 559.738 C 880.443 559.181 879.92 558.624 879.381 558.05 C 870.006 548.15 860.046 539.667 848.966 531.738 C 848.369 531.302 847.772 530.865 847.157 530.416 C 823.176 512.981 795.489 502.097 766.966 494.738 C 766.197 494.537 765.428 494.336 764.635 494.128 C 729.713 485.161 692.652 486.742 657.966 495.738 C 656.901 496.014 655.836 496.289 654.74 496.574 C 615.933 506.854 582.993 526.205 553.966 553.738 C 553.462 554.212 552.959 554.687 552.441 555.176 C 544.984 562.254 538.417 569.757 532.268 577.995 C 531.031 579.651 529.773 581.29 528.513 582.929 C 515.961 599.561 506.432 618.343 498.966 637.738 C 498.681 638.467 498.397 639.196 498.104 639.947 C 494.383 649.677 491.938 659.631 489.716 669.8 C 489.469 670.923 489.223 672.046 488.969 673.203 C 485.876 688.016 484.527 702.747 484.528 717.863 C 484.526 718.628 484.525 719.394 484.523 720.183 C 484.539 736.428 486.743 751.83 489.966 767.738 C 490.268 769.357 490.571 770.977 490.872 772.597 C 497.404 805.494 514.74 838.012 535.966 863.738 C 536.429 864.303 536.893 864.868 537.371 865.451 C 547.516 877.744 558.306 889 570.966 898.738 C 571.5 899.153 572.034 899.569 572.584 899.998 C 592.471 915.4 614.345 927.148 637.966 935.738 C 637.966 988.538 637.966 1041.34 637.966 1095.74 C 629.417 1094.42 621.507 1093.04 613.278 1090.67 C 612.213 1090.37 611.148 1090.07 610.05 1089.76 C 553.026 1073.19 500.338 1044.78 456.731 1004.28 C 454.532 1002.26 452.307 1000.3 450.028 998.363 C 441.372 990.847 433.358 982.487 425.966 973.738 C 425.079 972.725 424.191 971.713 423.302 970.703 C 396.26 939.825 373.905 903.764 358.716 865.622 C 358.102 864.079 357.471 862.542 356.837 861.007 C 355.845 858.596 354.898 856.173 353.966 853.738 C 353.709 853.068 353.453 852.398 353.189 851.708 C 349.301 841.5 345.712 831.322 342.966 820.738 C 342.767 819.979 342.569 819.219 342.365 818.437 C 334.054 786.478 329.582 754.649 329.705 721.608 C 329.716 718.175 329.705 714.743 329.692 711.31 C 329.683 697.999 330.246 684.94 331.966 671.738 C 332.052 671.063 332.139 670.388 332.229 669.692 C 338.057 625.319 351.294 582.35 371.977 542.646 C 372.991 540.69 373.981 538.722 374.97 536.753 C 386.915 513.253 402.126 491.339 419.466 471.508 C 420.619 470.148 421.741 468.762 422.85 467.366 C 428.457 460.325 434.491 453.933 440.886 447.611 C 442.535 445.981 444.176 444.342 445.815 442.703 C 451.36 437.176 456.969 431.777 462.966 426.738 C 463.598 426.199 464.23 425.66 464.881 425.105 C 485.971 407.21 508.572 391.98 532.909 378.856 C 534.79 377.834 536.653 376.786 538.513 375.726 C 573.694 356.106 614.383 343.652 654.148 338.139 C 656.878 337.75 659.597 337.32 662.317 336.871 C 663.159 336.732 664 336.593 664.867 336.45 C 666.388 336.198 667.909 335.944 669.429 335.688 C 679.483 334.066 689.575 333.579 699.747 333.535 Z" fill="#C0FE00" data-index="2" style="opacity: 1;"/>
  <path d="M 790.966 -578.26 C 801.79 -576.35 811.874 -574.45 822.278 -571.26 C 822.911 -571.07 823.543 -570.88 824.194 -570.68 C 848.789 -563.16 872.086 -552.91 894.966 -541.26 C 896.268 -540.6 896.268 -540.6 897.596 -539.92 C 922.667 -526.99 945.832 -509.88 966.966 -491.26 C 967.684 -490.63 968.403 -490 969.144 -489.35 C 975.459 -483.74 981.51 -477.9 987.48 -471.93 C 989.025 -470.39 990.578 -468.86 992.132 -467.32 C 998.528 -460.96 1004.35 -454.34 1009.97 -447.26 C 1010.83 -446.24 1011.7 -445.21 1012.58 -444.2 C 1057.34 -392 1086.22 -323.59 1094.66 -255.58 C 1095.05 -252.59 1095.56 -249.61 1096.09 -246.64 C 1097.76 -236.98 1098.13 -227.27 1098.17 -217.48 C 1098.18 -216.4 1098.18 -215.31 1098.19 -214.2 C 1098.42 -169.03 1098.42 -169.03 1094.97 -148.26 C 1094.66 -146.37 1094.66 -146.37 1094.35 -144.45 C 1089.79 -116.72 1083.7 -88.206 1071.98 -62.544 C 1070.96 -60.24 1070.03 -57.914 1069.12 -55.563 C 1066.54 -49.051 1063.52 -42.753 1060.47 -36.45 C 1060.16 -35.815 1059.85 -35.18 1059.54 -34.525 C 1047.54 -9.808 1033.19 13.3 1015.97 34.738 C 1015.23 35.663 1014.5 36.589 1013.74 37.542 C 1008.9 43.576 1003.78 49.301 998.516 54.968 C 996.47 57.19 994.485 59.438 992.528 61.738 C 985.328 70.028 977.336 77.645 968.966 84.738 C 967.952 85.626 966.939 86.515 965.927 87.406 C 933.75 115.581 896.458 137.775 856.789 153.597 C 853.844 154.787 850.924 156.029 848.001 157.273 C 842.118 159.728 836.163 161.806 830.091 163.738 C 829.017 164.08 827.944 164.423 826.838 164.776 C 817.101 167.814 807.278 170.169 797.297 172.247 C 795.256 172.677 793.222 173.136 791.188 173.601 C 784.61 175.098 778.006 176.273 771.341 177.3 C 770.608 177.415 769.876 177.53 769.121 177.648 C 766.407 178.05 763.689 178.399 760.966 178.738 C 760.313 178.821 759.661 178.905 758.989 178.991 C 745.148 180.722 731.423 181.049 717.484 180.998 C 713.97 180.988 710.456 180.998 706.942 181.011 C 688.103 181.024 669.849 179.442 651.278 176.363 C 650.614 176.253 649.949 176.144 649.264 176.032 C 586.198 165.628 525.896 138.615 475.966 98.738 C 475.036 98.002 474.107 97.266 473.149 96.507 C 467.121 91.662 461.399 86.548 455.735 81.289 C 453.513 79.242 451.265 77.257 448.966 75.3 C 440.674 68.099 433.062 60.106 425.966 51.738 C 425.12 50.781 424.274 49.825 423.403 48.839 C 397.234 19.117 377.625 -14.5 360.966 -50.262 C 360.527 -51.181 360.088 -52.101 359.635 -53.048 C 356.358 -60.018 353.842 -67.129 351.466 -74.45 C 350.88 -76.233 350.88 -76.233 350.283 -78.053 C 349.17 -81.454 348.067 -84.857 346.966 -88.262 C 346.555 -89.521 346.555 -89.521 346.135 -90.805 C 345.897 -91.534 345.66 -92.262 345.415 -93.012 C 345.22 -93.609 345.025 -94.206 344.824 -94.821 C 340.637 -108.11 337.527 -121.54 335.21 -135.27 C 334.843 -137.43 334.462 -139.59 334.079 -141.76 C 330.75 -160.93 329.633 -179.89 329.705 -199.34 C 329.716 -202.76 329.705 -206.18 329.692 -209.6 C 329.681 -227.32 330.546 -244.75 334.184 -262.13 C 334.913 -265.71 335.39 -269.31 335.876 -272.93 C 340.384 -305 352.115 -337.14 365.966 -366.26 C 366.403 -367.19 366.841 -368.13 367.292 -369.09 C 379.535 -395.04 395.189 -418.8 412.966 -441.26 C 413.691 -442.18 414.417 -443.1 415.165 -444.05 C 419.737 -449.75 424.547 -455.17 429.541 -460.5 C 432.204 -463.34 434.795 -466.22 437.329 -469.17 C 440.995 -473.38 444.944 -477.21 449.028 -481.01 C 449.774 -481.71 450.519 -482.4 451.287 -483.12 C 468.552 -499.14 487.015 -513.7 506.966 -526.26 C 507.686 -526.72 508.406 -527.17 509.148 -527.64 C 543.685 -549.24 580.718 -564.75 619.966 -575.45 C 620.669 -575.65 621.373 -575.84 622.098 -576.04 C 627.385 -577.4 631.181 -577.26 636.966 -577.26 C 636.966 -525.12 636.966 -472.98 636.966 -419.26 C 627.966 -415.26 627.966 -415.26 623.782 -413.47 C 568.773 -389.88 524.402 -345.63 501.317 -290.21 C 500.138 -287.25 499.042 -284.26 497.966 -281.26 C 497.527 -280.07 497.089 -278.87 496.638 -277.64 C 493.495 -268.7 491.329 -259.69 489.421 -250.41 C 488.952 -248.2 488.438 -246 487.923 -243.79 C 482.144 -217.75 483.582 -188.38 487.966 -162.26 C 488.175 -160.96 488.175 -160.96 488.388 -159.63 C 490.512 -146.63 494.245 -134.54 498.966 -122.26 C 499.232 -121.55 499.499 -120.84 499.773 -120.11 C 506.991 -100.92 516.675 -82.674 528.966 -66.262 C 529.402 -65.672 529.838 -65.081 530.288 -64.473 C 566.364 -15.944 621.305 15.657 680.966 24.738 C 682.166 24.925 683.366 25.112 684.602 25.304 C 712.838 29.27 742.553 27.602 769.966 19.738 C 770.86 19.515 771.755 19.292 772.677 19.062 C 815.598 8.299 859.926 -17.381 887.966 -52.262 C 888.795 -53.277 889.623 -54.291 890.477 -55.336 C 909.76 -79.205 926.759 -107.9 934.403 -137.82 C 934.608 -138.62 934.812 -139.41 935.023 -140.23 C 936.756 -147.12 938.276 -154.06 939.716 -161.01 C 939.926 -162 940.137 -163 940.354 -164.02 C 948.859 -206.52 942.259 -253.88 924.966 -293.26 C 924.467 -294.41 924.467 -294.41 923.959 -295.57 C 908.662 -330.3 884.491 -361.63 853.966 -384.26 C 853.403 -384.69 852.84 -385.11 852.26 -385.55 C 839.657 -395.01 826.295 -402.82 812.091 -409.64 C 811.248 -410.04 810.404 -410.45 809.536 -410.86 C 803.413 -413.73 797.378 -415.93 790.966 -418.26 C 790.966 -471.06 790.966 -523.86 790.966 -578.26 Z" fill="#C0FE00" data-index="3"/>
  <path d="M -222.25 -588.47 C -221.17 -588.47 -220.09 -588.48 -218.97 -588.49 C -215.49 -588.5 -212.01 -588.51 -208.53 -588.51 C -207.34 -588.51 -206.16 -588.51 -204.93 -588.51 C -187.44 -588.5 -170.33 -588.09 -153.03 -585.26 C -151.8 -585.06 -150.56 -584.87 -149.29 -584.66 C -127.6 -581.12 -127.6 -581.12 -122.07 -579.27 C -118.97 -578.24 -115.94 -577.59 -112.73 -576.97 C -105 -575.35 -97.559 -573.07 -90.056 -570.61 C -87.842 -569.89 -85.623 -569.17 -83.403 -568.47 C -75.351 -565.86 -67.673 -562.93 -60.034 -559.26 C -58.554 -558.6 -57.071 -557.95 -55.585 -557.3 C -45.571 -552.93 -35.721 -548.33 -26.034 -543.26 C -25.015 -542.73 -25.015 -542.73 -23.976 -542.2 C 1.284 -528.99 24.581 -512.05 45.966 -493.26 C 46.867 -492.47 47.768 -491.68 48.696 -490.87 C 55.557 -484.72 62.109 -478.25 68.653 -471.76 C 69.972 -470.46 69.972 -470.46 71.317 -469.14 C 76.557 -463.9 81.374 -458.49 86.003 -452.71 C 87.55 -450.78 89.12 -448.9 90.759 -447.05 C 134.739 -397.04 161.627 -331.06 172.716 -266.01 C 172.914 -264.85 173.113 -263.7 173.318 -262.5 C 173.925 -258.76 174.457 -255.02 174.966 -251.26 C 175.142 -249.96 175.319 -248.66 175.501 -247.32 C 177.665 -229.32 177.237 -211.18 177.198 -193.08 C 177.189 -188.05 177.192 -183.02 177.194 -177.99 C 177.195 -169.3 177.188 -160.62 177.177 -151.93 C 177.161 -139.36 177.156 -126.8 177.153 -114.24 C 177.149 -93.853 177.136 -73.467 177.117 -53.08 C 177.098 -33.289 177.084 -13.498 177.076 6.293 C 177.075 8.126 177.075 8.126 177.074 9.997 C 177.071 16.128 177.069 22.26 177.066 28.392 C 177.046 79.174 177.009 129.956 176.966 180.738 C 126.146 180.738 75.326 180.738 22.966 180.738 C 22.946 168.953 22.926 157.168 22.906 145.027 C 22.841 107.256 22.766 69.485 22.686 31.715 C 22.673 25.841 22.661 19.967 22.648 14.093 C 22.646 12.924 22.643 11.755 22.641 10.55 C 22.601 -8.346 22.568 -27.241 22.538 -46.137 C 22.507 -65.548 22.468 -84.958 22.423 -104.37 C 22.395 -116.33 22.373 -128.29 22.358 -140.26 C 22.348 -148.48 22.33 -156.7 22.307 -164.92 C 22.293 -169.65 22.283 -174.38 22.281 -179.11 C 22.343 -213.93 22.343 -213.93 17.716 -248.39 C 17.395 -250 17.395 -250 17.067 -251.64 C 14.056 -266.25 10.294 -280.71 3.966 -294.26 C 3.261 -295.84 2.557 -297.41 1.852 -298.99 C -5.869 -315.97 -15.356 -331.69 -27.034 -346.26 C -27.815 -347.25 -28.597 -348.23 -29.401 -349.25 C -41.207 -363.82 -54.705 -377.42 -70.034 -388.26 C -70.714 -388.74 -71.394 -389.23 -72.095 -389.72 C -123.03 -425.38 -183.91 -440.46 -245.51 -430.23 C -263.45 -427.04 -281.46 -423 -298.03 -415.26 C -299.61 -414.56 -301.18 -413.85 -302.76 -413.15 C -319.74 -405.43 -335.47 -395.94 -350.03 -384.26 C -351.02 -383.48 -352 -382.7 -353.02 -381.89 C -367.59 -370.09 -381.19 -356.59 -392.03 -341.26 C -392.52 -340.58 -393 -339.9 -393.49 -339.2 C -404.94 -322.85 -414.43 -305.72 -422.03 -287.26 C -422.49 -286.16 -422.95 -285.07 -423.43 -283.93 C -429.27 -268.88 -432.41 -252.5 -434.85 -236.57 C -434.96 -235.85 -435.07 -235.12 -435.19 -234.37 C -436.99 -221.49 -437.19 -208.52 -437.19 -195.54 C -437.2 -193.91 -437.2 -192.27 -437.21 -190.64 C -437.22 -186.19 -437.23 -181.74 -437.24 -177.3 C -437.24 -172.48 -437.26 -167.67 -437.27 -162.86 C -437.29 -154.54 -437.31 -146.22 -437.32 -137.89 C -437.35 -125.86 -437.38 -113.83 -437.41 -101.8 C -437.45 -82.273 -437.5 -62.748 -437.54 -43.223 C -437.58 -24.264 -437.62 -5.305 -437.66 13.654 C -437.67 14.824 -437.67 15.994 -437.67 17.199 C -437.68 23.069 -437.7 28.939 -437.71 34.808 C -437.82 83.451 -437.93 132.095 -438.03 180.738 C -488.85 180.738 -539.67 180.738 -592.03 180.738 C -592.1 128.855 -592.16 76.973 -592.19 25.091 C -592.19 18.953 -592.2 12.815 -592.2 6.678 C -592.2 5.456 -592.2 4.234 -592.2 2.975 C -592.21 -16.758 -592.24 -36.491 -592.27 -56.224 C -592.29 -76.501 -592.31 -96.778 -592.32 -117.06 C -592.32 -129.55 -592.33 -142.04 -592.36 -154.53 C -592.37 -163.12 -592.38 -171.71 -592.38 -180.3 C -592.37 -185.24 -592.38 -190.18 -592.39 -195.12 C -592.46 -216.39 -592.01 -237.16 -589.03 -258.26 C -588.92 -259.05 -588.82 -259.83 -588.7 -260.64 C -588.15 -264.56 -587.51 -268.44 -586.78 -272.32 C -586.57 -273.47 -586.36 -274.61 -586.14 -275.79 C -576.76 -324.86 -557.97 -372.76 -530.03 -414.26 C -529.21 -415.5 -529.21 -415.5 -528.36 -416.76 C -520.92 -427.75 -513.09 -438.31 -504.54 -448.46 C -503.16 -450.11 -501.81 -451.78 -500.47 -453.45 C -493.5 -462 -485.74 -469.77 -477.97 -477.57 C -477.42 -478.13 -476.86 -478.69 -476.29 -479.27 C -469.19 -486.42 -461.92 -492.98 -454.03 -499.26 C -452.95 -500.19 -451.88 -501.11 -450.82 -502.06 C -404.58 -542.72 -344.67 -568.29 -285.03 -581.26 C -284.28 -581.43 -283.53 -581.59 -282.76 -581.76 C -262.98 -585.97 -242.47 -588.38 -222.25 -588.47 Z" fill="#C0FE00" data-index="4" style="opacity: 1;"/>
  <path d="M -438.03 487.738 C -377.74 487.614 -377.74 487.614 -316.22 487.488 C -297.25 487.433 -297.25 487.433 -277.89 487.377 C -262.33 487.359 -262.33 487.359 -255.03 487.356 C -249.97 487.352 -244.92 487.337 -239.87 487.315 C -233.38 487.288 -226.9 487.28 -220.42 487.285 C -218.06 487.284 -215.71 487.277 -213.35 487.261 C -151.77 486.871 -92.639 508.987 -48.034 551.738 C -47.156 552.567 -47.156 552.567 -46.26 553.413 C -36.401 562.758 -27.906 572.671 -20.034 583.738 C -19.356 584.689 -19.356 584.689 -18.664 585.659 C -9.717 598.339 -2.068 611.827 4.278 625.988 C 4.579 626.659 4.881 627.33 5.191 628.022 C 12.162 644.062 16.263 660.7 19.966 677.738 C 20.165 678.643 20.364 679.549 20.57 680.482 C 23.207 693.07 23.241 705.743 23.278 718.55 C 23.282 719.38 23.286 720.21 23.29 721.065 C 23.327 737.139 21.671 752.272 17.778 767.925 C 17.469 769.178 17.159 770.432 16.84 771.723 C 7.125 810.219 -10.239 845.166 -37.609 874.16 C -39.721 876.405 -41.732 878.697 -43.722 881.05 C -47.177 885.019 -51.002 888.368 -55.034 891.738 C -55.931 892.511 -56.829 893.285 -57.753 894.082 C -88.745 920.506 -126.54 937.506 -166.38 945.221 C -168.09 945.554 -169.79 945.906 -171.49 946.282 C -188.27 949.788 -206.08 948.88 -223.13 948.851 C -225.53 948.851 -227.92 948.851 -230.32 948.852 C -236.67 948.852 -243.03 948.846 -249.39 948.839 C -255.38 948.833 -261.36 948.833 -267.35 948.832 C -284.81 948.827 -302.26 948.813 -319.72 948.8 C -378.29 948.769 -378.29 948.769 -438.03 948.738 C -438.03 796.608 -438.03 644.478 -438.03 487.738 Z" data-index="5" style="opacity: 1; visibility: visible; fill: rgb(244, 246, 250);"/>
</svg>